<?xml version="1.0" encoding="UTF-8" standalone="no"?>
<!-- Created with Inkscape (http://www.inkscape.org/) -->

<svg
   xmlns:dc="http://purl.org/dc/elements/1.1/"
   xmlns:cc="http://creativecommons.org/ns#"
   xmlns:rdf="http://www.w3.org/1999/02/22-rdf-syntax-ns#"
   xmlns:svg="http://www.w3.org/2000/svg"
   xmlns="http://www.w3.org/2000/svg"
   xmlns:sodipodi="http://sodipodi.sourceforge.net/DTD/sodipodi-0.dtd"
   xmlns:inkscape="http://www.inkscape.org/namespaces/inkscape"
   version="1.1"
   id="svg2"
   xml:space="preserve"
   width="525.10797"
   height="525.12665"
   viewBox="0 0 525.10797 525.12664"
   sodipodi:docname="mada_logo.svg"
   inkscape:version="0.92.3 (2405546, 2018-03-11)"><metadata
     id="metadata8"><rdf:RDF><cc:Work
         rdf:about=""><dc:format>image/svg+xml</dc:format><dc:type
           rdf:resource="http://purl.org/dc/dcmitype/StillImage" /><dc:title></dc:title></cc:Work></rdf:RDF></metadata><defs
     id="defs6"><clipPath
       clipPathUnits="userSpaceOnUse"
       id="clipPath18"><path
         d="M 0,841.89 H 595.28 V 0 H 0 Z"
         id="path16"
         inkscape:connector-curvature="0" /></clipPath></defs><sodipodi:namedview
     pagecolor="#ffffff"
     bordercolor="#666666"
     borderopacity="1"
     objecttolerance="10"
     gridtolerance="10"
     guidetolerance="10"
     inkscape:pageopacity="0"
     inkscape:pageshadow="2"
     inkscape:window-width="1920"
     inkscape:window-height="1017"
     id="namedview4"
     showgrid="false"
     fit-margin-top="0"
     fit-margin-left="0"
     fit-margin-right="0"
     fit-margin-bottom="0"
     inkscape:zoom="1.189304"
     inkscape:cx="310.64918"
     inkscape:cy="277.49986"
     inkscape:window-x="-8"
     inkscape:window-y="-8"
     inkscape:window-maximized="1"
     inkscape:current-layer="g10" /><g
     id="g10"
     inkscape:groupmode="layer"
     inkscape:label="mada"
     transform="matrix(1.3333333,0,0,-1.3333333,-72.370625,869.9645)"><g
       id="g4949"><g
         transform="translate(219.72197,642.44539)"
         id="g20"><path
           inkscape:connector-curvature="0"
           id="path22"
           style="fill:#c4161d;fill-opacity:1;fill-rule:evenodd;stroke:none"
           d="m 0,0 c -46.903,-8.521 -81.491,-30.01 -107.511,-58.218 -15.405,-16.692 -27.289,-34.541 -36.775,-57.933 -8.934,-22.05 -15.156,-49.932 -13.364,-80.769 1.672,-28.999 8.87,-53.798 19.495,-74.929 10.515,-20.919 24.283,-39.026 40.662,-54.026 31.297,-28.659 77.612,-53.384 138.698,-50.13 29.173,1.544 53.815,8.952 74.937,19.485 41.83,20.874 72.713,54.065 90.802,98.606 9.145,22.537 15.423,49.394 13.925,80.769 -1.352,28.144 -9.569,53.848 -19.771,74.647 -10.726,21.83 -23.53,38.756 -40.405,54.308 C 129.167,-19.086 83.412,5.166 21.719,2.224 14.927,1.898 7.169,1.301 0,0 m 30.92,10.028 h 1.103 C 95.792,8.24 137.329,-15.763 170.73,-47.905 c 32.041,-33.42 55.966,-74.951 57.657,-138.712 v -0.836 c -1.691,-63.751 -25.91,-105.002 -57.657,-138.707 -33.705,-31.747 -74.938,-55.976 -138.707,-57.657 h -1.398 c -63.585,1.866 -105.075,25.828 -138.421,57.942 -31.996,33.346 -55.874,74.845 -57.648,138.422 v 1.397 c 0.276,7.872 0.772,16.112 1.654,23.392 2.675,21.995 8.373,40.244 16.167,57.377 10.102,22.216 23.705,41.623 40.112,57.938 32.684,32.519 76.803,55.396 138.431,57.377" /></g><g
         transform="translate(241.16537,602.32969)"
         id="g24"><path
           inkscape:connector-curvature="0"
           id="path26"
           style="fill:#c4161d;fill-opacity:1;fill-rule:evenodd;stroke:none"
           d="m 0,0 c -1.461,5.887 0.423,13.291 -2.233,17.551 -1.627,2.619 -4.201,3.047 -6.407,5.014 1.094,3.093 2.739,5.625 4.458,8.083 1.691,-1.116 6.167,-4.08 7.518,-6.686 C 4.771,21.195 5.625,12.192 5.009,7.804 4.541,4.499 1.774,1.406 0,0" /></g><g
         transform="translate(296.58967,611.80579)"
         id="g28"><path
           inkscape:connector-curvature="0"
           id="path30"
           style="fill:#c4161d;fill-opacity:1;fill-rule:evenodd;stroke:none"
           d="m 0,0 c 1.856,0.919 2.371,5.575 0.551,6.963 1.976,2.119 4.605,3.575 6.407,5.846 4.669,-5.369 -0.469,-13.19 -5.01,-15.318 1.452,-2.716 2.914,-5.432 4.467,-8.07 -1.167,-2.67 -3.63,-3.994 -5.027,-6.411 -3.944,6.737 -7.326,14.021 -11.977,20.051 -2.196,-0.974 -3.694,-3.746 -3.336,-6.406 1.24,-0.804 3.088,-0.993 4.734,-1.388 -1.26,-2.542 -3.015,-4.614 -4.458,-6.963 -2.997,0.818 -5.929,1.692 -9.201,2.22 4.063,4.315 4.945,11.774 10.037,15.051 -1.112,2.404 -3.08,3.966 -4.734,5.841 1.692,2.109 3.796,3.819 5.846,5.57 C -7.004,12.128 -3.318,6.255 0,0" /></g><g
         transform="translate(208.85777,616.26379)"
         id="g32"><path
           inkscape:connector-curvature="0"
           id="path34"
           style="fill:#c4161d;fill-opacity:1;fill-rule:evenodd;stroke:none"
           d="m 0,0 c 1.894,-2.886 1.296,-8.309 4.734,-9.191 3.511,-0.915 7.068,2.183 11.14,2.224 -0.561,3.796 -0.938,7.794 -3.622,9.472 C 7.436,2.385 3.778,1.122 0,0 m -4.173,11.145 c 0.735,-0.915 0.791,-2.56 1.655,-3.351 6.296,-0.106 12.353,4.77 17.831,3.07 6.195,-1.926 6.498,-15.965 5.855,-24.798 -6.728,-1.342 -13.364,-2.79 -19.789,-4.453 -4.348,3.538 -4.954,10.818 -6.388,17.27 -1.599,0.193 -2.289,-0.496 -3.621,-0.556 0.478,5.262 2.252,9.256 4.457,12.818" /></g><g
         transform="translate(334.46667,612.36679)"
         id="g36"><path
           inkscape:connector-curvature="0"
           id="path38"
           style="fill:#c4161d;fill-opacity:1;fill-rule:evenodd;stroke:none"
           d="m 0,0 c -0.707,-0.864 -0.726,-2.422 -1.388,-3.351 1.904,-1.53 4.348,-2.518 6.407,-3.897 1.664,0.57 3.465,0.989 5.57,1.117 -0.35,-1.227 -1.057,-2.1 -1.673,-3.065 1.075,-1.144 2.739,-1.719 4.173,-2.505 -1.902,-1.989 -4.394,-3.401 -6.398,-5.294 -0.579,0.276 -1.112,0.565 -1.672,0.836 -2.611,-3.607 -4.623,-7.817 -6.967,-11.695 -2.417,-1.122 -4.982,-2.078 -7.794,-2.786 2.16,5.635 6.452,11.545 9.467,17.262 -3.484,2.56 -7.519,4.554 -11.416,6.691 C -8.906,-3.355 -4.815,-1.301 0,0" /></g><g
         transform="translate(184.89587,596.76909)"
         id="g40"><path
           inkscape:connector-curvature="0"
           id="path42"
           style="fill:#c4161d;fill-opacity:1;fill-rule:evenodd;stroke:none"
           d="m 0,0 c 1.59,0.06 2.657,1.893 3.916,1.383 -0.056,-2.909 0.459,-5.271 0.542,-8.07 -6.232,-3.235 -12.767,-7.656 -18.934,-10.028 0.211,3.098 -0.404,5.345 -0.295,8.355 3.53,1.682 6.738,3.668 10.038,5.57 -2.5,2.04 -2.841,7.238 -6.122,7.799 -4.118,0.689 -7.803,-4.66 -11.7,-5.845 -1.471,3.736 -1.039,9.232 -0.276,13.364 0.901,-0.864 1.562,-1.963 2.224,-3.061 4.182,1.457 8.769,6.861 13.088,3.341 C -4.191,10.087 -2.463,3.327 0,0" /></g><g
         transform="translate(340.32207,571.70419)"
         id="g44"><path
           inkscape:connector-curvature="0"
           id="path46"
           style="fill:#c4161d;fill-opacity:1;fill-rule:evenodd;stroke:none"
           d="m 0,0 c -0.285,1.227 1.094,2.247 1.948,3.341 3.998,5.161 10.497,10.588 6.398,19.77 2.702,1.108 5.533,2.064 8.639,2.781 C 21.37,14.812 12.904,8.231 8.346,2.5 5.864,1.374 3.271,0.335 0,0" /></g><g
         transform="translate(143.67267,596.20809)"
         id="g48"><path
           inkscape:connector-curvature="0"
           id="path50"
           style="fill:#c4161d;fill-opacity:1;fill-rule:evenodd;stroke:none"
           d="m 0,0 c 3.916,-0.216 8.824,0.193 11.416,-0.836 6.231,-2.477 4.816,-12.647 1.406,-17.827 -1.085,3.475 -0.938,8.176 -3.631,10.023 -3.18,0.29 -5.358,0.129 -8.63,0 C 0.129,-6.006 0.23,-2.84 0,0" /></g><g
         transform="translate(250.90847,358.05969)"
         id="g52"><path
           inkscape:connector-curvature="0"
           id="path54"
           style="fill:#c4161d;fill-opacity:1;fill-rule:evenodd;stroke:none"
           d="m 0,0 c 5.156,9.21 11.499,19.229 16.719,28.145 0.8,1.396 2.077,3.143 1.673,3.897 C 6.416,31.849 -6.305,32.409 -17.822,31.766 -11.526,21.526 -6.425,10.102 0,0 m -86.059,50.14 h 36.214 C -55.736,60.608 -61.444,71.233 -67.961,81.059 -73.743,70.508 -80.149,60.553 -86.059,50.14 m 136.749,0 C 62.575,50.323 75.212,49.771 86.628,50.424 80.176,60.498 74.735,71.583 67.97,81.344 62.345,70.811 56.306,60.682 50.69,50.14 m -0.275,99.436 c 5.818,-10.616 11.792,-21.08 18.097,-31.196 5.947,10.497 12.142,20.723 17.831,31.476 -12.629,0.12 -24.136,-0.119 -35.928,-0.28 M -56.821,99.451 c 9.522,-16.397 18.456,-33.365 28.42,-49.311 h 57.372 c 9.963,15.836 18.87,32.757 28.696,48.741 -4.624,8.585 -9.467,17.115 -14.219,25.63 -4.771,8.594 -9.404,17.252 -14.753,25.345 h -56.82 c -9.698,-16.668 -19.248,-33.498 -28.696,-50.405 m -10.304,19.205 c 5.717,10.538 11.949,20.552 17.547,31.2 h -36.481 c 6.26,-10.455 12.105,-21.319 18.934,-31.2 m 49.303,49.303 H 18.667 C 12.647,178.644 6.296,189.021 0,199.435 -5.782,188.777 -12.124,178.699 -17.822,167.959 m 57.933,0 h 77.419 c 0.147,-1.494 -0.965,-2.974 -1.664,-4.178 C 103.926,142.967 90.737,120.876 78.825,99.727 91.62,76.858 105.278,54.873 118.109,32.042 H 39.835 C 26.25,9.32 13.143,-13.879 0,-37.041 -13.438,-14.356 -25.901,9.284 -39.266,32.042 h -77.979 c -0.34,1.617 1.185,2.628 1.93,3.896 12.215,20.865 24.89,42.695 37.317,63.513 -12.648,23.162 -27.252,45.874 -39.541,68.508 h 77.997 c 13.604,22.22 26.067,45.594 39.275,68.236 13.686,-22.518 26.711,-45.681 40.378,-68.236" /></g><g
         transform="translate(373.17167,583.39069)"
         id="g56"><path
           inkscape:connector-curvature="0"
           id="path58"
           style="fill:#c4161d;fill-opacity:1;fill-rule:evenodd;stroke:none"
           d="m 0,0 c 0.938,-0.294 -1.269,-1.967 -1.654,-2.775 2.252,-3.42 5,-6.315 10.864,-6.131 -0.515,-1.158 -1.967,-1.384 -2.51,-2.514 0.608,-1.613 2.206,-2.243 3.062,-3.617 -2.721,-0.662 -7.041,-4.779 -8.908,-1.944 -5.735,-3.47 -7.104,-11.291 -17.839,-9.756 -0.496,0.932 1.672,2.26 2.803,3.345 3.318,3.204 7.205,7.358 10.846,10.309 -2.537,3.952 -6.499,6.493 -9.191,10.308 C -8.906,-1.287 -4.991,-0.092 0,0" /></g><g
         transform="translate(133.36947,539.94779)"
         id="g60"><path
           inkscape:connector-curvature="0"
           id="path62"
           style="fill:#c4161d;fill-opacity:1;fill-rule:evenodd;stroke:none"
           d="m 0,0 c -4.973,1.328 -9.725,7.758 -15.037,8.631 -5.8,0.951 -6.931,-7.468 -10.037,-10.579 -3.327,2.693 -4.678,7.371 -6.388,11.696 0.836,0.367 2.445,-0.883 3.603,-1.117 2.353,2.086 2.674,5.078 4.734,6.972 6.36,5.767 14.513,-5.304 20.064,-6.972 C -1.903,5.896 -0.497,3.401 0,0" /></g><g
         transform="translate(390.72737,551.09239)"
         id="g64"><path
           inkscape:connector-curvature="0"
           id="path66"
           style="fill:#c4161d;fill-opacity:1;fill-rule:evenodd;stroke:none"
           d="M 0,0 C 3.346,0.175 6.066,-0.248 9.191,-0.29 8.934,-4.559 7.271,-7.473 6.131,-10.864 1.479,-14.5 -5.11,-17.918 -11.131,-21.177 c -4.348,-2.339 -7.518,-4.049 -13.943,-1.944 7.61,4.839 16.131,8.741 23.126,14.201 C -0.854,-6.383 0.129,-3.741 0,0" /></g><g
         transform="translate(109.14097,527.41069)"
         id="g68"><path
           inkscape:connector-curvature="0"
           id="path70"
           style="fill:#c4161d;fill-opacity:1;fill-rule:evenodd;stroke:none"
           d="m 0,0 c 3.005,0.887 5.662,2.146 8.64,3.061 2.399,-1.494 3.998,-3.801 5.569,-6.131 -7.793,-2.141 -14.522,-5.345 -21.443,-8.35 0.543,-2.969 3.088,-3.961 5.846,-4.734 0.735,1.393 1.443,2.813 1.949,4.463 2.233,-0.492 4.071,-3.705 6.406,-5.023 -1.305,-2.781 -2.509,-5.658 -3.621,-8.631 -3.916,4.541 -10.855,6.043 -13.365,11.981 -2.444,-1.002 -4.448,-2.445 -6.406,-3.897 -2.077,1.82 -3.575,4.219 -4.734,6.958 6.03,2.95 11.508,6.484 18.365,8.63 C -3.382,0.584 -7.473,1.122 -9.743,0 -11.112,2.625 -13.052,4.688 -14.21,7.523 -7.013,10.34 -2.096,4.917 0,0" /></g><g
         transform="translate(401.59167,531.86869)"
         id="g72"><path
           inkscape:connector-curvature="0"
           id="path74"
           style="fill:#c4161d;fill-opacity:1;fill-rule:evenodd;stroke:none"
           d="M 0,0 C 3.254,0 6.039,-0.455 8.916,-0.841 8.548,-9.044 4.283,-11.512 -1.388,-15.322 c -4.182,-2.799 -7.776,-6.792 -15.055,-5.29 2.583,2.349 5.45,4.412 8.088,6.687 -7.041,-0.832 -11.857,2.073 -13.64,5.57 2.886,0.455 5.57,1.107 8.355,1.673 1.626,-2.652 4.688,-3.856 8.07,-4.738 C -1.856,-9.481 0.064,-5.712 0,0" /></g><g
         transform="translate(408.83477,511.25689)"
         id="g76"><path
           inkscape:connector-curvature="0"
           id="path78"
           style="fill:#c4161d;fill-opacity:1;fill-rule:evenodd;stroke:none"
           d="m 0,0 c 3.511,-1.222 6.507,-2.959 10.036,-4.177 -2.582,-2.721 -5.432,-5.161 -9.485,-6.411 5.874,-1.182 12.124,-3.723 9.762,-10.865 -2.179,-6.599 -15.994,-10.537 -24.799,-8.069 -1.113,5.386 -2.693,10.303 -3.621,15.873 2.601,-0.74 5.57,-1.122 8.354,-1.673 0.672,-3.318 1.563,-6.425 2.234,-9.742 4.798,0.744 12.482,5.036 9.192,10.303 -2.491,3.993 -9.32,2.311 -15.599,3.906 -4.521,1.135 -5.634,4.412 -8.079,5.285 C -14.137,-5.533 -1.314,-8.562 0,0" /></g><g
         transform="translate(109.14097,480.89799)"
         id="g80"><path
           inkscape:connector-curvature="0"
           id="path82"
           style="fill:#c4161d;fill-opacity:1;fill-rule:evenodd;stroke:none"
           d="m 0,0 c -2.804,1.829 -5.478,3.801 -7.794,6.131 0.708,6.737 -2.372,11.181 -8.089,10.579 -2.059,-3.502 -1.636,-9.495 -3.897,-12.813 -3.75,-0.165 -7.923,3.189 -11.14,0.836 -1.884,2.197 -3.961,4.201 -5.57,6.687 3.3,1.604 7.73,-0.652 10.598,-0.28 2.086,3.943 1.314,10.754 4.439,13.649 C -8.153,22.675 0.459,15.874 0,0" /></g><g
         transform="translate(84.627275,461.67879)"
         id="g84"><path
           inkscape:connector-curvature="0"
           id="path86"
           style="fill:#c4161d;fill-opacity:1;fill-rule:evenodd;stroke:none"
           d="M 0,0 C 15.8,3.291 14.651,-22.919 -1.112,-18.103 -9.485,-15.547 -9.127,-1.898 0,0" /></g><g
         transform="translate(412.18927,461.67879)"
         id="g88"><path
           inkscape:connector-curvature="0"
           id="path90"
           style="fill:#c4161d;fill-opacity:1;fill-rule:evenodd;stroke:none"
           d="m 0,0 c 6.277,1.406 11.59,-3.111 11.682,-8.911 0.129,-7.904 -7.16,-10.992 -12.813,-9.192 -7.224,2.298 -7.021,12.041 -3.621,15.594 C -3.962,-1.682 -2.481,-0.547 0,0" /></g><g
         transform="translate(426.93247,423.52059)"
         id="g92"><path
           inkscape:connector-curvature="0"
           id="path94"
           style="fill:#c4161d;fill-opacity:1;fill-rule:evenodd;stroke:none"
           d="m 0,0 c -1.435,-4.688 -2.464,-11.269 -3.897,-15.037 -1.83,-0.551 -0.773,1.829 -1.379,2.5 -2.583,1.141 -6.204,1.572 -10.037,2.501 -3.263,0.808 -7.399,2.886 -9.752,2.517 -1.609,-0.256 -1.544,-1.948 -3.061,-1.672 -0.625,2.059 0.9,6.691 1.948,8.916 1.563,0.349 1.031,-1.398 1.113,-2.509 6.36,-2.179 13.364,-3.733 20.626,-5.01 4.172,3.833 -0.708,7.813 -3.623,9.467 C -6.131,2.556 -2.721,0.185 0,0" /></g><g
         transform="translate(397.41877,411.82919)"
         id="g96"><path
           inkscape:connector-curvature="0"
           id="path98"
           style="fill:#c4161d;fill-opacity:1;fill-rule:evenodd;stroke:none"
           d="m 0,0 c 1.802,-1.158 4.798,-1.158 6.121,-2.794 -4.191,-0.073 -7.05,-1.489 -7.242,-5.569 2.702,-1.389 5.974,-2.198 8.915,-3.346 2.564,2.94 -1.075,4.908 -2.224,6.69 3.658,-1.065 7.344,-2.113 10.313,-3.896 -0.699,-1.048 -3.31,0.294 -4.467,-0.276 -1.158,-0.524 -1.287,-2.059 -1.949,-3.07 3.043,-1.222 6.122,-2.417 9.468,-3.337 1.746,0.745 1.984,3.025 2.517,5.01 -0.771,2.454 -4.513,3.217 -4.467,5.569 2.5,-0.844 4.606,-2.077 7.252,-2.794 -0.679,-2.683 -1.562,-5.441 -2.508,-8.069 -0.892,-2.427 -1.646,-5.441 -3.631,-6.968 -0.984,0.442 -0.065,1.039 -0.267,2.225 -5.643,3.327 -12.758,5.469 -19.779,7.527 -1.627,0.231 -0.92,-1.883 -2.804,-1.396 C -4.246,-9.688 -1.352,-4.89 0,0" /></g><g
         transform="translate(94.664375,395.11039)"
         id="g100"><path
           inkscape:connector-curvature="0"
           id="path102"
           style="fill:#c4161d;fill-opacity:1;fill-rule:evenodd;stroke:none"
           d="M 0,0 C 0.671,-1.186 1.223,-2.491 1.673,-3.906 4.292,-2.271 6.728,-0.414 8.897,1.673 5.892,1.149 2.316,1.204 0,0 M 15.58,3.906 C 15.809,3.189 15.874,2.325 16.416,1.939 10.193,-3.612 2.858,-8.07 -3.061,-13.925 c 0.028,-1.066 0.157,-2.206 -0.836,-2.224 -1.6,2.316 -3.318,5.937 -3.631,8.622 1.664,0.771 1.241,-1.306 2.795,-1.379 2.04,0.9 3.566,2.371 5,3.897 -0.754,1.746 -1.434,3.566 -2.216,5.294 -1.939,-0.681 -4.733,-0.478 -6.139,-1.673 -0.579,-1.085 0.615,-2.591 -0.837,-3.07 -1.332,1.654 -2.619,4.762 -2.785,6.683 1.499,0.597 1.977,-1.131 3.346,-1.388 2.546,-0.497 6.829,0.827 10.873,1.388 4.945,0.698 8.934,1.185 13.071,1.681" /></g><g
         transform="translate(399.91877,378.68559)"
         id="g104"><path
           inkscape:connector-curvature="0"
           id="path106"
           style="fill:#c4161d;fill-opacity:1;fill-rule:evenodd;stroke:none"
           d="M 0,0 C 0.625,1.425 1.498,2.592 1.948,4.173 -0.919,4.65 -4.559,5.809 -6.958,5.846 -4.596,3.943 -2.592,1.673 0,0 M 15.056,7.794 C 15.23,6.544 14.137,4.559 13.383,3.052 12.702,1.71 11.931,-0.625 10.589,-0.294 9.274,-0.166 10.791,1.158 10.304,2.225 8.64,3.061 6.306,3.235 4.182,3.603 2.877,2.316 2.381,0.211 1.397,-1.397 c 1.544,-1.25 2.674,-2.886 4.734,-3.622 1.755,-0.22 1.562,2.188 3.336,1.113 -0.661,-2.308 -2.188,-5.221 -3.336,-6.131 -1.654,0.073 -0.156,1.756 -0.837,2.518 -5.396,6.196 -11.977,11.213 -18.098,16.692 0.34,0.68 0.681,1.36 0.837,2.243 2.978,-0.497 7.601,-1.269 12.252,-2.243 4.348,-0.892 8.906,-2.739 11.415,-2.5 1.471,0.147 2.014,1.508 3.356,1.121" /></g><g
         transform="translate(118.61697,378.96099)"
         id="g108"><path
           inkscape:connector-curvature="0"
           id="path110"
           style="fill:#c4161d;fill-opacity:1;fill-rule:evenodd;stroke:none"
           d="m 0,0 c 0.294,-0.542 1.6,-0.073 1.664,-0.846 -2.096,-2.095 -5.625,-4.191 -8.355,-4.723 1.333,3.381 5,3.896 5.018,7.518 0,1.305 -0.928,2.941 -2.233,3.346 -5.754,1.755 -19.293,-6.922 -19.21,-11.435 0.092,-5.533 6.599,-2.206 8.897,-0.275 0.506,1.323 -0.542,2.546 0.57,3.346 2.188,-1.719 3.833,-5.423 4.458,-7.795 -1.333,-0.827 -1.324,0.745 -2.51,0.827 -2.564,-0.68 -4.411,-2.096 -6.415,-3.327 -3.438,1.866 -7.261,3.934 -7.519,8.345 C -26.324,6.48 -0.671,16.664 0,0" /></g><g
         transform="translate(377.92367,368.64849)"
         id="g112"><path
           inkscape:connector-curvature="0"
           id="path114"
           style="fill:#c4161d;fill-opacity:1;fill-rule:evenodd;stroke:none"
           d="M 0,0 C 3.171,-1.746 5.763,-4.071 8.906,-5.846 13.089,-0.965 2.51,5.975 0,0 m 12.252,-1.673 c 3.089,-1.177 7.666,-0.873 11.141,-1.664 1.387,0.065 1.92,1.609 3.336,0.828 -0.147,-1.737 -2.252,-3.833 -3.336,-5.57 -4.431,0.229 -8.779,1.994 -13.089,1.396 2.352,-1.828 4.779,-3.575 7.518,-5.017 1.783,-0.267 1.71,1.892 3.061,0.56 -0.79,-2.215 -3.41,-6.397 -5.294,-7.518 -0.975,0.386 -0.294,1.544 0,2.223 -2.739,3.254 -8.438,6.527 -12.804,9.468 -1.433,0.974 -3.3,2.684 -4.458,2.794 -1.213,0.102 -2.013,-1.287 -3.079,-0.846 -0.129,1.471 1.498,3.622 2.804,5.58 1.783,2.656 3.722,6.461 7.794,6.122 3.254,-0.267 6.939,-3.935 6.406,-8.356" /></g><g
         transform="translate(121.67808,375.06449)"
         id="g116"><path
           inkscape:connector-curvature="0"
           id="path118"
           style="fill:#c4161d;fill-opacity:1;fill-rule:evenodd;stroke:none"
           d="m 0,0 c 3.299,-3.769 6.14,-7.979 8.906,-12.262 -1.948,-0.864 -3.612,-3.4 -5.57,-3.345 1.645,2.077 2.813,6.912 -0.275,9.191 -2.914,-1.636 -5.332,-3.769 -8.08,-5.57 0.515,-3.502 4.651,-2.463 6.407,-1.673 -1.407,-2.334 -5.975,-5.331 -8.631,-6.406 0.469,1.351 4.044,4.733 0.836,6.682 -3.832,-2.022 -12.059,-6.158 -5.294,-10.579 2.794,-0.193 4.311,0.892 6.682,1.111 -0.487,-2.131 -4.531,-3.05 -6.121,-5.008 -3.061,4.292 -7.151,8.998 -9.192,13.364 1.333,0.808 1.443,-0.846 2.786,-0.837 6.176,3.677 11.718,7.96 17.261,12.262 C -0.221,-1.627 -1.526,-0.644 0,0" /></g><g
         transform="translate(370.67167,361.96589)"
         id="g120"><path
           inkscape:connector-curvature="0"
           id="path122"
           style="fill:#c4161d;fill-opacity:1;fill-rule:evenodd;stroke:none"
           d="m 0,0 c 2.564,-1.452 5.589,-3.869 6.691,-5.846 -2.408,0.12 -9.099,4.256 -10.018,-0.284 -0.487,-2.298 2.187,-4.541 3.602,-4.733 3.319,-0.469 7.087,3.005 10.874,2.233 7.794,-1.608 9.982,-14.266 0.561,-15.607 -0.469,-0.028 0.294,-1.159 0,-1.949 -1.306,0.092 -2.831,1.682 -4.183,2.776 -1.231,1.012 -3.354,2.179 -3.06,3.631 2.868,-1.259 10.368,-3.925 11.14,0.56 0.423,2.491 -2.252,4.771 -3.897,5.019 -2.573,0.368 -4.752,-1.921 -7.243,-2.242 C -5.34,-17.646 -10.46,-3.611 0,-1.938 -0.129,-1.313 -0.542,-0.523 0,0" /></g><g
         transform="translate(131.98127,360.56939)"
         id="g124"><path
           inkscape:connector-curvature="0"
           id="path126"
           style="fill:#c4161d;fill-opacity:1;fill-rule:evenodd;stroke:none"
           d="m 0,0 c 2.004,-0.965 2.886,-3.042 4.449,-4.449 -1.839,-6.25 -4.109,-12.04 -6.122,-18.107 3.024,2.454 7.491,5.873 10.037,9.752 0.285,2.013 -1.103,2.684 0.267,3.613 1.774,-1.59 4.558,-3.576 4.733,-5.855 -1.057,-0.846 -1.332,0.938 -2.785,0.561 -6.709,-4.219 -11.608,-10.286 -17.546,-15.323 -2.307,1.048 -0.836,3.603 -0.276,5.294 1.756,5.221 4.109,11.6 5.846,16.72 -3.796,-2.712 -8.539,-6.885 -11.691,-11.141 -0.405,-1.552 0.937,-2.408 0.275,-3.336 -2.224,0.184 -4.899,3.576 -5.294,5.57 0.947,0.533 1.682,-0.643 2.785,-0.57 2.123,0.147 5.019,3.502 7.243,5.57 3.336,3.107 6.195,5.129 7.794,8.64 C -0.331,-1.425 -1.204,-0.864 0,0" /></g><g
         transform="translate(362.31718,351.37799)"
         id="g128"><path
           inkscape:connector-curvature="0"
           id="path130"
           style="fill:#c4161d;fill-opacity:1;fill-rule:evenodd;stroke:none"
           d="m 0,0 c 0.771,-1.26 -0.607,-1.462 -0.543,-2.785 4.348,-5.478 9.357,-10.331 14.477,-15.037 1.627,-0.625 2.637,1.967 3.051,0 0.276,-0.772 -1.544,-2.5 -2.785,-3.621 -1.304,-1.196 -2.858,-2.62 -3.897,-2.786 -1.204,0.892 0.699,1.324 0.551,2.51 -0.256,2.5 -5.008,5.57 -7.233,7.794 -2.987,2.996 -5.294,5.708 -7.518,7.519 -1.48,0.165 -2.124,-1.49 -3.061,-0.276 0.781,2.482 4.412,4.476 6.14,6.967 C -0.387,0.358 -0.35,0.019 0,0" /></g><g
         transform="translate(149.24248,326.31359)"
         id="g132"><path
           inkscape:connector-curvature="0"
           id="path134"
           style="fill:#c4161d;fill-opacity:1;fill-rule:evenodd;stroke:none"
           d="M 0,0 C -1.737,-2.335 -9.191,-9.174 -3.897,-10.589 2.225,-12.216 15.01,4.963 6.682,9.191 4.366,6.396 2.951,3.971 0,0 m -10.579,-5.57 c 3.419,2.591 6.811,8.208 10.037,12.537 1.075,1.452 2.914,2.923 3.061,4.173 0.174,1.544 -1.517,2.15 -0.57,3.345 2.996,-2.132 7.252,-3.934 9.467,-6.966 5.717,-7.804 -4.292,-22.501 -14.477,-20.332 -1.819,0.386 -3.63,2.408 -5.293,3.622 -1.609,1.204 -7.73,5.238 -2.225,3.621" /></g><g
         transform="translate(348.66777,339.40149)"
         id="g136"><path
           inkscape:connector-curvature="0"
           id="path138"
           style="fill:#c4161d;fill-opacity:1;fill-rule:evenodd;stroke:none"
           d="M 0,0 C 0.367,-0.092 0.45,-0.478 0.854,-0.552 1.158,-1.838 -0.064,-1.985 0,-3.621 c 0.146,-3.089 4.265,-6.839 6.406,-9.743 2.573,-3.474 4.881,-6.627 6.425,-9.467 -0.56,-0.285 -1.204,-0.487 -1.397,-1.121 -6.489,3.346 -13.272,6.415 -19.78,9.742 2.647,-4.127 5.947,-10.019 10.294,-13.364 1.435,0.147 2.408,0.974 3.071,-0.276 -1.784,-1.581 -4.008,-4.135 -6.407,-4.172 -0.468,0.964 0.882,1.912 0.836,3.051 -0.083,1.911 -2.977,5.313 -5.018,8.088 -2.013,2.758 -4.348,7.206 -6.397,8.07 -1.591,0.68 -3.364,-0.478 -3.897,0.836 1.222,1.738 3.336,2.602 5.009,3.907 5.845,-2.702 11.581,-5.515 17.261,-8.355 -2.114,3.446 -5.156,8.383 -8.631,11.425 -1.304,0.294 -2.187,-0.735 -3.06,0 0.046,2.354 3.962,3.033 5.285,5" /></g><g
         transform="translate(161.49497,314.89749)"
         id="g140"><path
           inkscape:connector-curvature="0"
           id="path142"
           style="fill:#c4161d;fill-opacity:1;fill-rule:evenodd;stroke:none"
           d="M 0,0 C 1.728,-0.331 2.289,-1.802 4.191,-1.948 4.604,1.158 6.351,4.421 6.416,6.958 4.476,4.43 1.709,2.758 0,0 M 12.261,11.14 C 11.517,7.463 10.12,3.64 8.925,-0.57 7.831,-4.375 5.689,-9.044 5.864,-12.262 c 0.064,-1.378 1.397,-1.792 0.818,-3.069 -1.204,-0.148 -3.006,1.112 -4.439,1.958 -1.351,0.799 -3.622,1.7 -3.346,3.06 0.257,1.397 1.544,-0.303 2.509,0 1.057,1.536 1.241,3.961 1.948,5.846 -0.891,1.811 -3.161,2.234 -4.733,3.346 -1.866,-1.012 -2.978,-2.776 -4.191,-4.449 -0.221,-1.692 2.049,-1.507 1.112,-3.07 -1.755,0.128 -5.404,2.169 -5.846,3.621 0.12,1.728 1.563,-0.331 2.519,0.552 6.498,5.019 11.976,11.048 17.822,16.719 0.928,-0.175 1.369,-0.855 2.224,-1.112" /></g><g
         transform="translate(330.29377,326.58899)"
         id="g144"><path
           inkscape:connector-curvature="0"
           id="path146"
           style="fill:#c4161d;fill-opacity:1;fill-rule:evenodd;stroke:none"
           d="m 0,0 c 0.515,-0.037 0.193,-0.919 0.837,-0.837 -0.193,-1.111 -1.241,-1.369 -1.673,-2.233 3.392,-6.434 6.508,-13.162 10.864,-18.64 0.772,-0.12 1.692,1.048 2.225,0.257 0.661,-1.847 -2.252,-2.279 -3.622,-3.051 -1.599,-0.892 -2.932,-2.298 -4.173,-2.233 -1.452,1.213 0.873,1.608 1.112,2.784 -3.143,6.434 -6.645,12.491 -10.303,18.383 -1.692,0.129 -2.693,-0.69 -3.355,0.56 C -5.946,-2.794 -2.527,-1.838 0,0" /></g><g
         transform="translate(186.29327,318.51859)"
         id="g148"><path
           inkscape:connector-curvature="0"
           id="path150"
           style="fill:#c4161d;fill-opacity:1;fill-rule:evenodd;stroke:none"
           d="m 0,0 c -0.451,-1.186 -1.241,-0.395 -2.785,-0.561 -1.609,-5.266 -2.096,-11.635 -3.346,-17.27 3.594,3.29 7.601,8.566 10.864,13.089 0.212,1.598 -2.343,1.617 -1.397,3.069 1.205,0.699 5.359,-1.856 6.131,-2.518 0.312,-1.599 -1.801,-0.79 -2.509,-1.378 -5.846,-5.579 -10.837,-12.004 -15.874,-18.383 -0.772,0.238 -1.369,0.661 -2.224,0.827 0.221,3.759 1.223,7.757 1.949,11.985 0.68,3.915 2.169,8.732 1.672,11.977 C -7.73,2.133 -9.146,2.519 -8.64,3.897 -5.791,3.658 -2.206,1.802 0,0" /></g><g
         transform="translate(315.25667,317.95809)"
         id="g152"><path
           inkscape:connector-curvature="0"
           id="path154"
           style="fill:#c4161d;fill-opacity:1;fill-rule:evenodd;stroke:none"
           d="m 0,0 c 0.883,-1.829 -1.259,-1.517 -1.406,-3.061 2.243,-6.672 4.541,-13.291 7.252,-19.503 1.168,-0.653 2.399,0.441 2.785,-0.828 -1.884,-2.031 -6.397,-2.886 -8.631,-3.622 -0.965,1.545 0.901,1.591 1.379,2.5 -1.315,7.133 -4.44,12.464 -6.406,18.944 -0.092,-4.449 0.873,-10.313 1.397,-15.322 0.276,-2.601 1.038,-5.689 -0.266,-7.518 -5.075,5.708 -8.631,12.904 -13.383,18.933 2.508,-6.204 4.108,-13.345 7.518,-18.658 1.131,-0.275 2.721,-0.073 3.079,-1.102 -1.618,-1.471 -5.248,-2.372 -6.976,-2.795 -1.011,1.719 1.222,1.701 1.406,3.061 -1.746,7.178 -3.998,13.851 -7.252,19.494 -1.057,0.663 -2.481,-0.569 -2.509,0.846 0.496,1.654 4.623,2.031 6.682,3.061 3.98,-3.924 6.297,-9.504 10.028,-13.649 -0.625,5.607 -0.837,11.609 -1.949,16.71 C -4.88,-1.627 -2.61,-0.644 0,0" /></g><g
         transform="translate(198.27867,313.77649)"
         id="g156"><path
           inkscape:connector-curvature="0"
           id="path158"
           style="fill:#c4161d;fill-opacity:1;fill-rule:evenodd;stroke:none"
           d="M 0,0 C 2.978,-0.818 7.077,-2.004 8.897,-3.061 9.43,-4.789 7.436,-4.008 6.406,-4.173 c -2.766,-6.158 -4.972,-12.859 -6.7,-20.056 -0.221,-1.341 2.61,-1.103 1.397,-2.5 -0.818,-0.699 -2.978,0.515 -4.733,1.113 -1.526,0.514 -4.412,0.688 -3.889,2.215 -0.018,1.231 1.232,-0.184 2.216,0.294 1.673,2.233 2.306,5.808 3.621,9.743 1.038,3.088 3.723,7.629 3.355,10.018 C 1.434,-1.829 -0.873,-1.637 0,0" /></g><g
         transform="translate(221.38558,300.68759)"
         id="g160"><path
           inkscape:connector-curvature="0"
           id="path162"
           style="fill:#c4161d;fill-opacity:1;fill-rule:evenodd;stroke:none"
           d="M 0,0 C -0.211,3.125 -3.097,8.346 -5.579,5.294 -6.057,4.688 -6.351,1.82 -6.691,0.275 -7.849,-4.981 -9.586,-11.002 -9.182,-15.598 -1.985,-18.07 0.414,-6.085 0,0 m -16.995,-15.598 c -0.22,1.627 1.921,0.873 2.786,1.398 1.433,6.829 3.354,13.179 4.19,20.606 0.157,1.407 -2.692,0.873 -1.672,2.234 -0.056,0.322 0.064,0.487 0.266,0.551 4.862,-1.507 8.989,-0.772 12.261,-3.345 6.177,-4.844 3.815,-18.144 -1.682,-22.004 -4.282,-3.006 -10.965,-1.011 -16.149,0.56" /></g><g
         transform="translate(281.82797,301.52449)"
         id="g164"><path
           inkscape:connector-curvature="0"
           id="path166"
           style="fill:#c4161d;fill-opacity:1;fill-rule:evenodd;stroke:none"
           d="m 0,0 c -0.101,-6.306 3.281,-18.227 7.795,-17.537 2.656,0.394 3.06,5.597 2.509,9.457 C 9.577,-2.841 6.939,5.817 3.327,5.569 0.644,5.377 0.046,2.969 0,0 m 2.225,7.252 c 13.879,2.94 18.06,-28.788 3.069,-26.472 -9.559,1.48 -14.117,24.11 -3.069,26.472" /></g><g
         transform="translate(241.44128,289.54789)"
         id="g168"><path
           inkscape:connector-curvature="0"
           id="path170"
           style="fill:#c4161d;fill-opacity:1;fill-rule:evenodd;stroke:none"
           d="M 0,0 C 1.884,0.221 2.969,-0.377 4.733,-0.276 3.98,2.775 3.529,6.121 2.5,8.915 1.774,5.846 0.772,3.033 0,0 m 5.846,15.331 c 1.728,-8.033 3.235,-16.25 5.57,-23.686 0.101,-1.213 2.206,-0.395 1.948,-1.958 -2.169,-1.305 -6.691,-0.22 -9.191,0 -0.322,1.82 1.848,1.122 2.509,1.958 -0.413,2.178 -1.057,4.145 -1.397,6.406 -1.792,0.147 -4.219,-0.322 -5.561,0.276 -0.524,-1.324 -2.169,-4.228 -1.673,-5.846 0.515,-1.682 1.876,-0.606 2.501,-2.224 -1.223,-1.085 -5.543,-0.588 -7.234,-0.285 -0.083,1.645 1.673,1.48 2.5,2.233 2.803,7.501 4.945,15.672 7.518,23.383 1.012,0.093 1.82,-0.036 2.51,-0.257" /></g><g
         transform="translate(262.32407,302.92099)"
         id="g172"><path
           inkscape:connector-curvature="0"
           id="path174"
           style="fill:#c4161d;fill-opacity:1;fill-rule:evenodd;stroke:none"
           d="M 0,0 C 0.129,-3.603 0.744,-7.602 1.112,-11.425 1.489,-15.239 0.772,-19.421 3.061,-21.729 12.225,-21.829 8.906,4.256 0,0 m -4.733,-23.962 c -0.451,2.041 2.114,1.066 2.224,2.519 0.036,2.812 -0.533,6.333 -0.818,10.018 -0.442,5.46 0.45,11.094 -3.64,11.986 0.855,1.599 3.401,1.232 5.019,1.397 5.156,0.46 9.154,0.165 11.71,-2.794 2.444,-2.831 3.446,-7.795 3.336,-11.416 -0.294,-9.431 -7.73,-12.481 -17.831,-11.71" /></g><g
         transform="translate(264.27227,621.27299)"
         id="g176"><path
           inkscape:connector-curvature="0"
           id="path178"
           style="fill:#c4161d;fill-opacity:1;fill-rule:evenodd;stroke:none"
           d="m 0,0 c -4.053,0.763 -9.081,0.579 -13.364,1.122 1.645,4.384 4.706,8.846 7.795,10.859 -0.075,-1.383 0.054,-2.56 0.294,-3.626 C -2.877,8.157 -0.202,8.24 1.949,7.799 3.53,8.916 4.752,10.396 6.683,11.135 6.591,9.954 6.958,8.277 6.416,7.519 8.392,7.739 9.522,7.101 11.416,7.238 10.193,4.771 9.1,2.146 7.813,-0.276 H 5.846 C 5.368,-8.599 5.258,-17.321 -1.103,-19.78 -1.14,-13.883 -0.192,-6.572 0,0" /></g><g
         transform="translate(125.01448,579.49369)"
         id="g180"><path
           inkscape:connector-curvature="0"
           id="path182"
           style="fill:#c4161d;fill-opacity:1;fill-rule:evenodd;stroke:none"
           d="m 0,0 c 5.938,-2.316 11.737,-7.201 10.579,-17.542 4.099,-4.766 9.66,5.079 8.079,10.019 -1.415,4.508 -7.068,4.995 -9.467,7.247 -0.533,2.804 -0.9,5.791 -1.112,8.911 10.295,-3.428 21.094,-16.599 13.658,-29.802 -1.305,-2.29 -3.318,-5.327 -5.57,-5.571 -2.693,-0.294 -7.362,2.661 -10.037,3.898 -4.908,2.283 -7.353,4.682 -13.649,4.733 -0.294,3.139 -0.616,6.264 -1.112,9.201 5.975,-1.659 10.533,-4.711 15.874,-6.968 0.34,4.987 -3.539,5.745 -6.407,7.524 C 0.689,-5.437 0.533,-2.528 0,0" /></g><g
         transform="translate(99.958775,429.36629)"
         id="g184"><path
           inkscape:connector-curvature="0"
           id="path186"
           style="fill:#c4161d;fill-opacity:1;fill-rule:evenodd;stroke:none"
           d="m 0,0 c 1.13,-2.013 1.452,-4.862 2.224,-7.233 -4.467,-3.438 -9.973,-5.819 -15.046,-8.649 5.175,-0.441 11.857,0.036 17.261,0.284 0.405,-2.38 1.884,-5.174 1.682,-7.242 -1.517,-1.076 -1.388,1.48 -2.785,1.388 -6.994,-1.544 -13.87,-3.217 -20.046,-5.57 -0.533,-0.68 0.073,-2.482 -1.131,-2.5 -1.323,2.187 -3.014,6.747 -2.224,9.191 1.434,0.147 0.965,-1.636 1.949,-1.948 7.04,0.956 12.693,3.29 19.228,4.742 -4.881,0.312 -11.949,0.515 -17.28,0.266 -1.737,-0.082 -4.632,-1.369 -5.276,0.837 0.579,1.084 2.73,2.132 4.44,3.07 4.733,2.593 10.349,5.423 15.331,8.07 -6.039,-1.121 -13.851,-2.867 -19.228,-5.57 -0.276,-1.103 0.018,-2.794 -1.388,-2.776 -1.14,1.636 -1.912,5.138 -1.958,6.949 1.498,0.92 1.756,-1.507 3.07,-1.655 7.022,1.416 14.008,2.887 19.78,5.571 0.459,0.551 -0.019,2.058 0.561,2.5 C -0.451,-0.294 -0.046,-0.321 0,0" /></g></g></g></svg>