<?xml version="1.0" encoding="utf-8"?>
<!-- Generator: Adobe Illustrator 15.0.0, SVG Export Plug-In . SVG Version: 6.00 Build 0)  -->
<!DOCTYPE svg PUBLIC "-//W3C//DTD SVG 1.1//EN" "http://www.w3.org/Graphics/SVG/1.1/DTD/svg11.dtd">
<svg version="1.1" id="Layer_1" xmlns="http://www.w3.org/2000/svg" xmlns:xlink="http://www.w3.org/1999/xlink" x="0px" y="0px"
	 width="409px" height="381px" viewBox="-119.5 7.5 409 381" enable-background="new -119.5 7.5 409 381" xml:space="preserve">
<polygon id="triangulo" fill="none" stroke="#D62921" stroke-width="19" points="10.1,97.922 85,228.303 159.9,97.922 "/>
<polygon id="triangulo_2_" fill="none" stroke="#D62921" stroke-width="19" points="159.9,184.806 85,54.424 10.1,184.806 "/>
<g>
	<path fill="#0099FF" d="M-32.934,344.27c-1.5,1.5-3.3,2.25-5.399,2.25h-1.89c-6.3,0-11.7-2.235-16.199-6.705
		c-4.5-4.47-6.75-9.854-6.75-16.154v-30.509c0-2.1,0.765-3.899,2.295-5.399c1.53-1.5,3.345-2.25,5.445-2.25c2.1,0,3.9,0.75,5.4,2.25
		s2.25,3.3,2.25,5.399v7.65h9.45c2.1,0,3.899,0.75,5.399,2.25c1.5,1.499,2.25,3.3,2.25,5.399s-0.75,3.899-2.25,5.399
		s-3.3,2.25-5.399,2.25h-9.54v7.56c0,2.04,0.75,3.811,2.25,5.311c1.5,1.499,3.27,2.249,5.31,2.249h1.98c2.1,0,3.899,0.75,5.399,2.25
		s2.25,3.3,2.25,5.4C-30.684,340.97-31.434,342.77-32.934,344.27z"/>
	<path fill="#0099FF" d="M42.709,339.814c-4.47,4.47-9.855,6.705-16.154,6.705c-5.76,0-10.83-1.95-15.209-5.85
		c-4.26,3.899-9.3,5.85-15.12,5.85c-6.3,0-11.685-2.235-16.154-6.705s-6.705-9.854-6.705-16.154v-15.209c0-2.1,0.75-3.9,2.25-5.399
		c1.5-1.5,3.3-2.25,5.399-2.25c2.1,0,3.9,0.75,5.4,2.25c1.5,1.499,2.25,3.3,2.25,5.399v15.209c0,2.04,0.75,3.811,2.25,5.311
		c1.5,1.499,3.27,2.249,5.31,2.249s3.795-0.734,5.265-2.204c1.47-1.471,2.205-3.255,2.205-5.355v-15.119
		c0-2.1,0.765-3.915,2.295-5.444c1.53-1.53,3.345-2.295,5.445-2.295s3.9,0.75,5.4,2.25c1.5,1.499,2.25,3.3,2.25,5.399v15.209
		c0,2.101,0.735,3.885,2.205,5.355c1.47,1.47,3.225,2.204,5.265,2.204c2.1,0,3.885-0.75,5.354-2.249
		c1.47-1.5,2.205-3.271,2.205-5.311v-15.209c0-2.1,0.75-3.9,2.25-5.399c1.5-1.5,3.3-2.25,5.399-2.25c2.1,0,3.9,0.75,5.4,2.25
		c1.5,1.499,2.25,3.3,2.25,5.399v15.209C49.414,329.96,47.179,335.345,42.709,339.814z"/>
	<path fill="#0099FF" d="M66.875,298.462c-1.5,1.499-3.3,2.249-5.4,2.249s-3.915-0.75-5.445-2.249c-1.53-1.5-2.295-3.3-2.295-5.4
		c0-2.1,0.75-3.899,2.25-5.399s3.3-2.25,5.4-2.25c2.1,0,3.915,0.75,5.445,2.25c1.53,1.5,2.295,3.3,2.295,5.399
		C69.125,295.162,68.375,296.962,66.875,298.462z M66.875,344.27c-1.5,1.5-3.3,2.25-5.4,2.25s-3.915-0.75-5.445-2.25
		s-2.295-3.3-2.295-5.399v-24.839c0-2.101,0.75-3.9,2.25-5.4s3.3-2.25,5.4-2.25c2.1,0,3.915,0.75,5.445,2.25
		c1.53,1.5,2.295,3.3,2.295,5.4v24.839C69.125,340.97,68.375,342.77,66.875,344.27z"/>
	<path fill="#0099FF" d="M103.234,344.27c-1.5,1.5-3.3,2.25-5.4,2.25h-1.89c-6.3,0-11.7-2.235-16.199-6.705
		c-4.5-4.47-6.75-9.854-6.75-16.154v-30.509c0-2.1,0.765-3.899,2.295-5.399c1.53-1.5,3.345-2.25,5.445-2.25s3.9,0.75,5.4,2.25
		s2.25,3.3,2.25,5.399v7.65h9.449c2.1,0,3.9,0.75,5.4,2.25c1.5,1.499,2.25,3.3,2.25,5.399s-0.75,3.899-2.25,5.399
		s-3.3,2.25-5.4,2.25h-9.54v7.56c0,2.04,0.75,3.811,2.25,5.311c1.5,1.499,3.27,2.249,5.31,2.249h1.979c2.1,0,3.9,0.75,5.4,2.25
		s2.25,3.3,2.25,5.4C105.484,340.97,104.734,342.77,103.234,344.27z"/>
	<path fill="#0099FF" d="M139.322,344.27c-1.5,1.5-3.3,2.25-5.399,2.25h-1.89c-6.3,0-11.7-2.235-16.2-6.705
		c-4.5-4.47-6.75-9.854-6.75-16.154v-30.509c0-2.1,0.765-3.899,2.295-5.399c1.53-1.5,3.345-2.25,5.445-2.25c2.1,0,3.9,0.75,5.4,2.25
		s2.25,3.3,2.25,5.399v7.65h9.45c2.1,0,3.899,0.75,5.399,2.25c1.5,1.499,2.25,3.3,2.25,5.399s-0.75,3.899-2.25,5.399
		s-3.3,2.25-5.399,2.25h-9.54v7.56c0,2.04,0.75,3.811,2.25,5.311c1.5,1.499,3.27,2.249,5.311,2.249h1.979
		c2.1,0,3.899,0.75,5.399,2.25s2.25,3.3,2.25,5.4C141.572,340.97,140.822,342.77,139.322,344.27z"/>
	<path fill="#0099FF" d="M188.73,344.27c-1.5,1.5-3.3,2.25-5.399,2.25h-15.029c-6.3,0-11.7-2.235-16.2-6.705
		c-4.499-4.47-6.749-9.854-6.749-16.154s2.235-11.685,6.704-16.154c4.471-4.47,9.855-6.704,16.154-6.704
		c5.34,0,10.08,1.649,14.22,4.949s6.81,7.56,8.01,12.779c0.181,0.36,0.271,0.931,0.271,1.71c0,2.101-0.75,3.9-2.25,5.4
		s-3.3,2.25-5.4,2.25c-3.779,0-6.254-1.95-7.424-5.85c-1.171-3.9-3.615-5.851-7.335-5.851c-2.101,0-3.899,0.735-5.399,2.205
		s-2.25,3.225-2.25,5.265s0.75,3.811,2.25,5.311c1.5,1.499,3.27,2.249,5.309,2.249h15.03c2.1,0,3.915,0.75,5.444,2.25
		c1.53,1.5,2.295,3.3,2.295,5.4C190.98,340.97,190.23,342.77,188.73,344.27z"/>
	<path fill="#0099FF" d="M233.641,313.851c-1.5,1.5-3.3,2.25-5.4,2.25h-11.249c-2.04,0-3.811,0.735-5.31,2.205
		c-1.5,1.47-2.25,3.255-2.25,5.354v15.21c0,2.1-0.75,3.899-2.25,5.399s-3.3,2.25-5.4,2.25c-2.1,0-3.914-0.75-5.444-2.25
		s-2.295-3.3-2.295-5.399v-15.21c0-6.3,2.234-11.685,6.705-16.154c4.47-4.47,9.854-6.704,16.154-6.704h11.249
		c2.1,0,3.915,0.75,5.445,2.25c1.529,1.499,2.295,3.3,2.295,5.399S235.141,312.351,233.641,313.851z"/>
</g>
</svg>
