<?xml version="1.0" encoding="UTF-8" standalone="no"?>
<svg height="83.68148" viewBox="0 0 194.96328 83.68148" width="194.96327" xmlns="http://www.w3.org/2000/svg" xmlns:xlink="http://www.w3.org/1999/xlink">
   <clipPath id="a">
      <path d="m606.742 68.5703c0-9.1484 7.414-16.5625 16.567-16.5625v0c9.144 0 16.558 7.4141 16.558 16.5625v0c0 9.1485-7.414 16.5625-16.558 16.5625v0c-9.153 0-16.567-7.414-16.567-16.5625"/>
   </clipPath>
   <clipPath id="b">
      <path d="m0 0h1049v1588h-1049z"/>
   </clipPath>
   <g transform="matrix(2.46373967 0 0 -2.46373967 -1494.85433226 211.49758663)">
      <path d="m657.59 60.9844v14.0781c0 3.0859-1.977 5.1445-5.063 5.1445-2.14 0-3.871-.8242-5.597-2.8398l-.41 1.8516c-.125.496-.415.7421-.989.7421h-1.234c-.496 0-.949-.3281-.949-.8632v-18.1133c0-.4922.453-.9024.949-.9024h1.891c.496 0 .906.4102.906.9024v11.1562c0 2.7578 1.933 4.8555 4.402 4.8555 1.692 0 2.348-.8242 2.348-2.7578v-13.2539c0-.4922.453-.9024.945-.9024h1.895c.496 0 .906.4102.906.9024" fill="#939597"/>
      <path d="m675.094 70c0 7.5313-3.293 10.207-7.449 10.207-4.571 0-7.575-3.9101-7.575-10.082 0-6.7539 3.172-10.25 8.77-10.25 2.426 0 3.828.3711 5.101.9453.493.207.7.6172.536 1.1133l-.454 1.3164c-.164.4531-.492.7813-1.109.5742-1.195-.3672-2.305-.6992-3.871-.6992-3.621 0-4.898 2.1406-5.063 5.9688h10.208c.496 0 .906.4101.906.9062m-3.828 1.8906h-7.286c.411 4.2813 2.305 5.3125 3.786 5.3125 2.554 0 3.418-2.6758 3.5-5.3125" fill="#939597"/>
      <path d="m685.852 61.2734l-.207 1.2774c-.082.4922-.493.7383-.946.6562-.371-.082-.945-.164-1.277-.164-.945 0-1.399.4961-1.399 1.6054v12.3907h2.348c.492 0 .863.4101.863.9062v1.1094c0 .4922-.371.9062-.863.9062h-2.348v5.1836c0 .7422-.535.7852-1.152.6211l-1.851-.539c-.454-.1211-.7-.5313-.7-1.0664v-4.1993h-2.222c-.535 0-.864-.414-.864-.9062v-1.1094c0-.4961.329-.9062.864-.9062h2.222v-13.0078c0-2.7579 1.36-4.1563 4.282-4.1563.988 0 1.976.1211 2.632.3281.579.1641.7.5782.618 1.0703" fill="#939597"/>
      <path d="m606.742 68.5703c0 9.1485 7.418 16.5625 16.567 16.5625 9.148 0 16.562-7.414 16.562-16.5625 0-9.1484-7.414-16.5625-16.562-16.5625-9.149 0-16.567 7.4141-16.567 16.5625" fill="#ed1c24"/>
      <g clip-path="url(#a)" fill="#fff">
         <g clip-path="url(#b)">
            <path d="m630.313 77.8555c.136.5351-.165.8711-.602.8711h-2.008c-.433 0-.801-.2344-.902-.7032l-2.477-10.1015c-.234-.9375-.398-1.7735-.535-2.375-.031.7031-.133 1.3711-.301 2.039l-2.808 10.4024c-.133.4687-.469.7383-.938.7383h-2.207c-.433 0-.769-.336-.601-.836l4.281-13.414c.168-.5039.402-.7032.902-.7032h1.137c-.066-.3359-.399-1.8046-.566-2.0078-.403-1.4062-1.106-2.375-2.274-2.9765l-.469-.2344c-.371-.1992-.605-.668-.402-1.0352l.703-1.3711c.199-.4023.633-.539 1.004-.3711l.734.336c1.774.8047 3.079 2.3437 3.746 4.8164"/>
         </g>
      </g>
      <path d="m676.164 57.1211c.383-.1445.953-.0273 1.16-.4297-.179-.9883-.09-2.043.293-2.9062-.043-.6602-.402-1.125-.683-1.7579h-3.426c.207.6641.238.9454.418 1.379l.113.121.246.0625c.352.0235.324-.0507.504.0235.066.5976-.262 1.9219-.262 1.9219l-.839.0039c0 .7265-.118 1.3945-.563 1.9297.453.0898.809-.5118 1.328-.4727.238-.0195.606.0781.641-.2617-.098-1.1485.125-2.1758.472-3.1367.438-.0704.696.0507 1.332-.0079-.152.586-.25 1.9805-.265 1.9454 0 0-.629-.0196-.942.0039.153.6718-.043 1.4101-.339 2.0078.332 0 .546-.2852.812-.4258" fill="#ed1c24"/>
      <path d="m680.828 56.957c.399-.082 2.317-.0429 2.317-.0429l.175-1.3086h-.402c.098-.586.23-1.3047.48-1.8203-.324-.5274-.546-1.1446-.687-1.7579h-.324l-.004 3.5586-2.414.0039c-.035.6875-.199 1.4141-.594 1.9649.297.2148.441-.2383.734-.3594.274-.1133.43-.1797.719-.2383" fill="#ed1c24"/>
      <path d="m664.281 56.8203l.082-.125c-.027-.9297.196-1.7578-.812-2.2383l1.203-1.7265-1.012-.8516c-.711.957-2.375 2.7656-2.375 2.7656l-.191-1.1367.922-.0195.101-1.461-1.601.0079-.09.082c.347 1.293.269 2.5547.09 3.8906l.507 1.2383h.137l2.051-2.5898c.176-.1172.328.1796.426.3046.074.1758.082.3711-.125.4493l-.731.0468c-.027.6485-.215 1.2383-.687 1.711l.047.125c.523-.543 1.347-.375 2.058-.4727" fill="#ed1c24"/>
      <path d="m650.281 56.8984c.383.168.289-.207.274-.4296.031-.5625.406-2.6915.449-3.0547.012-.1211-.594-1.375-.594-1.375h-1.672c0 0 .446.8711.598 1.3359h.766v2.1133c-1.125-.1445-.715.6797-.938 1.1172-.062.3203-.383.5937-.383.8984.571-.0156.848-.7656 1.5-.6055" fill="#ed1c24"/>
      <path d="m671.801 57.0859c.301-.3593.98 0 1.148-.4765-.062-1.0781.074-2.0781.395-2.9961-.27-.5-.5-.7852-.688-1.586h-.277l.004 3.4688c0 0-.403.0117-.797 0 .113.9961-.359 1.6875-.563 2.0156.403.0977.497-.3203.778-.4258" fill="#ed1c24"/>
      <path d="m657.258 55.5195c.043-.6875.199-1.2968.414-1.914-.27-.5-.5-.7735-.688-1.5742h-.214c-.293 1.8203.324 3.8554-.711 5.3632.625.2578.668-.6328 1.242-.5078h2.39l.168-.0703.118-.1836c-.063-1.0781.074-2.0976.394-3.0195-.269-.4961-.504-.7227-.687-1.5781h-.34l.004 3.4765h-2.004" fill="#ed1c24"/>
      <path d="m678.184 57.0859c.304-.3593.98 0 1.152-.4765 0 0 .102-.8711.449-1.5196-.297-.3789-.597-.5703-.781-1.371h-.234l-.004 1.7773c0 0-.422-.0195-.797 0 .113.9961-.356 1.6875-.559 2.0156.399.0977.586-.3203.774-.4258" fill="#ed1c24"/>
      <path d="m684.164 57.0859c.305-.3593.981 0 1.152-.4765 0 0 .102-.8711.45-1.5196-.297-.3789-.559-.5703-.746-1.371h-.266l.008 1.7773c0 0-.449.0117-.813 0 .114.9961-.355 1.6875-.558 2.0156.398.0977.507-.3047.773-.4258" fill="#ed1c24"/>
      <path d="m651.945 55.4961c0 0-.328.0039-.691 0 .113.9961-.356 1.6875-.559 2.0156.399.0977.571-.3476.774-.4336.472-.2734.98.0039 1.152-.4687-.062-1.0781.07-2.0781.391-2.9961-.266-.5-.625-.7852-.813-1.586h-.25" fill="#ed1c24"/>
      <path d="m647.859 55.4883c0 0-.468.0039-.746 0 .114.9961-.359 1.6875-.562 2.0156.402.0977.531-.2656.777-.4258.301-.3593.981 0 1.149-.4765-.063-1.0782.062-2.0821.386-3-.269-.5-.527-.7891-.715-1.586h-.289" fill="#ed1c24"/>
      <path d="m645.813 55.4648h-1.786c-.367-.2851-.293-.9375-.125-1.3671.508-.7149.036-1.3164-.132-1.9688l-.075-.0898h-1.675l.554 1.4179h.711c-.137.4688-.25 1.4922 0 2.0078-.086.0469-.262.0625-.398.043-.016.7149-.11 1.3125-.438 1.8828.242.418.473-.3203.766-.3398.937-.2149 2.012-.125 3.117-.1524.106-.0273.184-.1015.246-.3086-.062-1.0781.074-2.0859.399-3.0039-.27-.5-.504-.789-.688-1.5859h-.476" fill="#ed1c24"/>
      <path d="m656.043 56.6133c-.063-1.0781.078-2.0781.402-2.9961-.269-.5-.504-.7891-.687-1.5899h-.336l-.004 3.4727h-2.281c.043.668-.055 1.3555-.457 1.8398.035.1407.285.0899.383.043.285-.2969.488-.3633.765-.4726h1.926c.125-.043.223-.1446.289-.2969" fill="#ed1c24"/>
      <path d="m670.09 55.4492h-1.77c-.367-.2851-.293-.8594-.125-1.2851.508-.7188.035-1.3985-.132-2.0469l-.075-.0899h-1.675c0 0 .367 1.0235.554 1.4961l.711-.0039c-.137.4688-.25 1.4141 0 1.9297-.086.043-.254.0313-.387.0156-.015.711-.121 1.3399-.449 1.9102.242.418.473-.3203.766-.3398.91-.2422 2.023-.0899 3.058-.1329.11-.0273.168-.1523.258-.3242-.062-1.0781.067-2.0976.387-3.0156-.266-.5-.5-.75-.684-1.5508l-.433-.0039" fill="#ed1c24"/>
   </g>
</svg>
